<?xml version="1.0" standalone="no"?>
<!DOCTYPE svg PUBLIC "-//W3C//DTD SVG 1.1//EN" "http://www.w3.org/Graphics/SVG/1.1/DTD/svg11.dtd" >
<svg xmlns="http://www.w3.org/2000/svg">
<metadata>Generated by IcoMoon</metadata>
<defs>
<font id="sriven" horiz-adv-x="1024">
<font-face units-per-em="1024" ascent="960" descent="-64" />
<missing-glyph horiz-adv-x="1024" />
<glyph unicode="&#x20;" horiz-adv-x="512" d="" />
<glyph unicode="&#xe900;" glyph-name="uniE900" d="M512-64c-282.752 0-512 229.248-512 512s229.248 512 512 512 512-229.248 512-512-229.248-512-512-512zM512 874.667c-235.648 0-426.667-191.019-426.667-426.667s191.019-426.667 426.667-426.667 426.667 191.019 426.667 426.667-191.019 426.667-426.667 426.667zM765.269 432.811c-0.725-2.048-0.896-4.181-1.963-6.144-0.469-0.939-1.365-1.451-1.92-2.347-1.451-2.347-3.371-4.309-5.291-6.357-1.749-1.835-3.371-3.669-5.419-5.077-0.853-0.64-1.408-1.621-2.347-2.219l-333.483-205.184c-6.427-6.503-14.935-10.938-24.443-12.221l-0.219-0.024c-1.92-0.427-3.797-0.981-5.76-1.152l-0.427-0.085c-0.341 0-0.597 0.171-0.939 0.213-0.361-0.012-0.784-0.019-1.21-0.019-11.016 0-20.936 4.696-27.866 12.196l-0.023 0.026c-0.171 0.128-0.256 0.341-0.427 0.512-2.347 2.517-4.907 4.779-6.656 8.021-0.597 1.109-0.597 2.304-1.067 3.456-1.067 2.176-1.536 4.565-2.176 6.912-0.725 2.731-1.493 5.333-1.664 8.107-0.085 1.152-0.64 2.091-0.64 3.243v425.685c-0.171 7.595 0.853 15.275 4.651 22.315 6.758 12.374 19.671 20.632 34.515 20.651h0.003c1.237 0.085 2.261 0.683 3.499 0.683 0.555 0 1.024-0.299 1.621-0.341l0.341-0.043c11.921-0.57 22.463-6.034 29.737-14.412l0.044-0.052 332.885-204.203c1.237-0.768 1.963-2.005 3.115-2.901 0.683-0.512 1.237-1.195 1.877-1.792 3.532-3.023 6.501-6.576 8.813-10.557l0.104-0.195 0.469-0.555c0.213-0.469 0.213-0.981 0.427-1.451 2.091-4.224 3.541-8.576 4.224-13.312 0.171-1.28 0.171-2.475 0.256-3.712 0.060-0.88 0.095-1.907 0.095-2.942 0-3.126-0.314-6.178-0.913-9.127l0.050 0.293c-0.427-2.048-1.195-3.925-1.877-5.888zM426.667 583.936v-272.64l221.867 136.533-221.867 136.107z" />
<glyph unicode="&#xe901;" glyph-name="1" d="M844.215 469.626c-57.295-57.027-104.18-8.704-65.585 33.378l129 200.997c-202.021 3.779-321.438-71.534-372.37-139.654-37.083-49.762-59.343-165.815-66.853-196.535-6.29-25.819-27.112-42.984-52.907-39.107-27.38 6.68-42.35 48.64-35.669 75.947 1.292 5.291 28.574 129.902 85.626 206.238 50.127 67.194 149.26 153.137 377.685 164.815l-150.723 93.233c-23.406 15.701-37.62 41.496-12.654 72.509 15.799 23.186 45.763 5.291 69.047-10.362l251.148-158.549c13.601-9.279 22.415-24.704 22.415-42.187 0-10.612-3.247-20.465-8.802-28.621l0.113 0.177-169.472-232.277zM906.679 703.805c-2.17-0.39-6.875-1.268 0 0zM907.63 704l-0.951-0.195c0.454 0.081 0.775 0.148 1.094 0.223l-0.143-0.028zM512 894.61c-246.272 0-446.61-200.338-446.61-446.61s200.338-446.61 446.61-446.61 446.61 200.338 446.61 446.61c0 18.050 14.633 32.683 32.683 32.683s32.683-14.633 32.683-32.683v0c0-282.307-229.669-511.976-511.976-511.976s-511.976 229.669-511.976 511.976c0 282.307 229.669 511.976 511.976 511.976 18.050 0 32.683-14.633 32.683-32.683s-14.633-32.683-32.683-32.683v0z" />
<glyph unicode="&#xe902;" glyph-name="2" d="M512 960c-282.32 0-512-229.68-512-512s229.68-512 512-512 512 229.68 512 512-229.68 512-512 512zM512-7.11c-250.94 0-455.11 204.17-455.11 455.11s204.17 455.11 455.11 455.11 455.11-204.17 455.11-455.11-204.17-455.11-455.11-455.11zM768 476.44h-227.56v227.56c0 15.71-12.735 28.445-28.445 28.445s-28.445-12.735-28.445-28.445v0-227.56h-227.55c-15.71 0-28.445-12.735-28.445-28.445s12.735-28.445 28.445-28.445h227.56v-227.55c0-15.71 12.735-28.445 28.445-28.445s28.445 12.735 28.445 28.445v227.56h227.55c15.71 0 28.445 12.735 28.445 28.445s-12.735 28.445-28.445 28.445v0z" />
<glyph unicode="&#xe903;" glyph-name="3" d="M512 948c-275.69 0-500-224.31-500-500s224.31-500 500-500 500 224.31 500 500-224.31 500-500 500zM512 3.56c-245.060 0-444.44 199.38-444.44 444.44s199.38 444.44 444.44 444.44 444.44-199.38 444.44-444.44-199.38-444.44-444.44-444.44zM373.11 670.22c-0.006 0-0.013 0-0.020 0-15.331 0-27.76-12.429-27.76-27.76 0-0.007 0-0.014 0-0.021v0.001-388.88c0-15.342 12.438-27.78 27.78-27.78s27.78 12.438 27.78 27.78v0 388.88c0 0.006 0 0.013 0 0.020 0 15.331-12.429 27.76-27.76 27.76-0.007 0-0.014 0-0.021 0h0.001zM650.89 670.22c-0.006 0-0.013 0-0.020 0-15.331 0-27.76-12.429-27.76-27.76 0-0.007 0-0.014 0-0.021v0.001-388.88c0-15.342 12.438-27.78 27.78-27.78s27.78 12.438 27.78 27.78v0 388.88c0 0.006 0 0.013 0 0.020 0 15.331-12.429 27.76-27.76 27.76-0.007 0-0.014 0-0.021 0h0.001z" />
<glyph unicode="&#xe904;" glyph-name="uniE904" d="M852.728 567.553c104.27-66.027 104.214-173.112 0-239.103l-570.839-361.469c-104.27-66.027-188.798-23.034-188.798 95.882v770.277c0 118.981 84.584 161.873 188.798 95.882l570.839-361.469z" />
<glyph unicode="&#xe905;" glyph-name="4" d="M928 483.2c-19.2 0-32-12.8-32-32v-86.4c0-108.8-86.4-198.4-198.4-198.4h-496l41.6 38.4c6.4 6.4 12.8 16 12.8 25.6 0 19.2-16 35.2-35.2 35.2-9.6 0-22.4-3.2-28.8-9.6l-108.8-99.2c-16-12.8-12.8-35.2 0-48l108.8-96c6.4-6.4 19.2-12.8 28.8-12.8 19.2 0 35.2 12.8 38.4 32 0 12.8-6.4 22.4-16 28.8l-48 44.8h499.2c147.2 0 265.6 118.4 265.6 259.2v86.4c0 19.2-12.8 32-32 32zM96 403.2c19.2 0 32 12.8 32 32v89.6c0 112 89.6 201.6 198.4 204.8h496l-41.6-38.4c-6.4-6.4-12.8-16-12.8-25.6 0-19.2 16-35.2 35.2-35.2 9.6 0 22.4 3.2 28.8 9.6l105.6 99.2c16 12.8 12.8 35.2 0 48l-108.8 96c-6.4 6.4-19.2 12.8-28.8 12.8-19.2 0-35.2-12.8-38.4-32 0-12.8 6.4-22.4 16-28.8l48-44.8h-496c-147.2 0-265.6-118.4-265.6-268.8v-86.4c0-19.2 12.8-32 32-32zM544 288v320h-48l-80-57.6 16-41.6 60.8 41.6v-262.4z" />
<glyph unicode="&#xe906;" glyph-name="5" d="M291.636 574.596c-30.49 0-55.207-25.633-55.207-57.266 0-31.637 24.717-57.272 55.207-57.272 30.486 0 55.203 25.635 55.203 57.272 0 31.632-24.717 57.266-55.203 57.266v0zM512.461 574.596c-30.49 0-55.208-25.633-55.208-57.266 0-31.637 24.722-57.272 55.208-57.272s55.204 25.635 55.204 57.272c0 31.632-24.718 57.266-55.204 57.266v0zM733.287 574.596c-30.492 0-55.208-25.633-55.208-57.266 0-31.637 24.716-57.272 55.208-57.272 30.486 0 55.202 25.635 55.202 57.272 0 31.632-24.716 57.266-55.202 57.266v0zM843.697 860.923h-662.476c-60.972 0-110.41-51.287-110.41-114.539v-429.487c0-63.256 50.543-121.56 112.92-121.56h168.257c29.33-31.245 150.716-156.912 150.716-156.912 5.389-5.606 14.124-5.606 19.514 0 0 0 88.87 100.764 146.775 156.912h172.193c62.376 0 112.92 58.308 112.92 121.56v429.488c0.001 63.252-49.433 114.538-110.409 114.538zM899.451 316.702c0-31.669-26.565-64.899-57.799-64.899h-169.577c-20.543 0-39.009-21.123-39.009-21.123l-119.066-123.495-119.045 123.495c0 0-22.676 21.123-42.112 21.123h-169.576c-31.235 0-57.794 33.23-57.794 64.899v430.093c0 31.677 24.751 57.353 55.28 57.353h663.411c30.53 0 55.287-25.676 55.287-57.353v-430.093z" />
<glyph unicode="&#xe907;" glyph-name="6" d="M452.225 813.1l-340.588-340.588c-13.073-13.073-34.059-13.073-47.132 0s-12.901 34.059 0 47.132l340.588 340.588c13.073 13.073 34.059 13.073 47.132 0s13.073-34.059 0-47.132v0zM924.232 341.265l-340.588-340.588c-13.073-13.073-34.059-13.073-47.132 0s-12.901 34.059 0 47.132l340.588 340.588c13.073 13.073 34.059 13.073 47.132 0s12.901-34.231 0-47.132v0zM451.193 339.201l-103.036-103.036c-13.073-13.073-34.059-13.073-47.132 0s-12.901 34.059 0 47.132l103.036 103.036c13.073 13.073 34.059 13.073 47.132 0s13.073-34.231 0-47.132v0zM298.444 435.013l-74.654-74.654c-13.073-13.073-34.059-13.073-47.132 0s-12.901 34.059 0 47.132l74.654 74.654c13.073 13.073 34.059 13.073 47.132 0 12.901-13.073 12.901-34.231 0-47.132v0zM545.285 188.001l-74.654-74.654c-13.073-13.073-34.059-13.073-47.132 0s-12.901 34.059 0 47.132l74.654 74.654c13.073 13.073 34.059 13.073 47.132 0s13.073-34.059 0-47.132v0zM536.34 0.677l-471.835 471.663c-13.073 13.073-13.073 34.059 0 47.132s34.059 12.901 47.132 0l471.835-471.835c13.073-13.073 13.073-34.059 0-47.132-13.073-12.901-34.059-12.901-47.132 0.172v0zM732.264 196.429l-471.835 471.835c-13.073 13.073-13.073 34.059 0 47.132s34.059 12.901 47.132 0l471.663-471.835c13.073-13.073 13.073-34.059 0-47.132-12.901-13.073-34.059-12.901-46.96 0v0zM912.363 740.51l-107.681 107.853c-13.073 13.073-13.073 34.059 0 47.132s34.059 12.901 47.132 0l107.681-107.853c13.073-13.073 13.073-34.059 0-47.132s-34.231-13.073-47.132 0v0zM587.256 631.281l-181.819 181.819c-13.073 13.073-13.073 34.059 0 47.132s34.059 12.901 47.132 0l181.991-181.991c13.073-13.073 13.073-34.059 0-47.132-13.073-12.901-34.231-12.901-47.304 0.172v0zM877.1 341.437l-181.819 181.819c-13.073 13.073-13.073 34.059 0 47.132s34.059 12.901 47.132 0l181.991-181.991c13.073-13.073 13.073-34.059 0-47.132-13.073-12.901-34.231-12.901-47.304 0.172v0zM959.323 740.51l-217.082-217.082c-13.073-13.073-34.059-13.073-47.132 0s-12.901 34.059 0 47.132l217.082 217.082c13.073 13.073 34.059 13.073 47.132 0 13.073-12.901 13.073-34.059 0-47.132v0zM851.642 848.363l-217.254-217.082c-13.073-13.073-34.059-13.073-47.132 0s-12.901 34.059 0 47.132l217.254 217.082c13.073 13.073 34.059 13.073 47.132 0s12.901-34.059 0-47.132v0z" />
<glyph unicode="&#xe908;" glyph-name="7" d="M580.352 212.352v358.976c0 41.856 65.344 41.856 65.344 0v-358.912c0.064-41.856-65.344-41.856-65.344-0.064zM384.32 212.352v358.976c0 41.856 65.344 41.856 65.344 0v-358.912c0-41.856-65.344-41.856-65.344-0.064zM939.904 734.464h-163.392v65.28c0 54.080-43.968 97.856-97.088 97.856h-327.808c-0.038 0-0.083 0-0.128 0-54.057 0-97.884-43.804-97.92-97.853v-65.283h-163.392c-41.856 0-41.856-65.216 0-65.216h849.664c41.92 0 41.92 65.216 0.064 65.216zM318.976 799.744c0 17.344 15.296 32.64 32.64 32.64h327.808c17.344 0 31.68-13.312 31.68-32.64v-65.28h-392.128v65.28zM743.808-16h-457.536c-0.019 0-0.041 0-0.064 0-54.057 0-97.883 43.804-97.92 97.852v489.476c0 19.392 15.296 32.64 32.64 32.64s32.704-13.248 32.704-32.64v-489.408c0-17.344 15.36-32.64 32.64-32.64h457.536c17.842 0.484 32.185 14.804 32.703 32.591l0.001 0.049v488.384c0 42.816 65.344 42.816 65.344 0v-488.448c-0.073-54.060-43.914-97.856-97.984-97.856-0.022 0-0.045 0-0.067 0h0.003z" />
<glyph unicode="&#xe909;" glyph-name="8" d="M206 95h-38c-30.928 0-56 25.072-56 56v593c0 30.928 25.072 56 56 56h38c30.928 0 56-25.072 56-56v-593c0-30.928-25.072-56-56-56zM374.686 481.191l422.304 303.4c32.294 23.201 77.282 15.83 100.484-16.464 8.455-11.652 13.526-26.239 13.526-42.009 0 0 0 0 0-0.001v0-559.053c0-39.764-32.235-72-72-72 0 0 0 0 0 0-14.89 0-28.724 4.52-40.206 12.263l0.256-0.163-422.762 281.959c-25.73 17.16-32.677 51.93-15.517 77.66 3.808 5.659 8.427 10.435 13.753 14.296l0.162 0.112z" />
<glyph unicode="&#xe90a;" glyph-name="9" d="M511.515 80.148c-5.461 0-10.801 1.456-15.655 4.491-0.242 0.122-0.485 0.364-0.85 0.485-73.424 46.967-141.753 102.431-202.798 164.811-61.167 62.501-115.173 131.922-160.563 206.438-24.515 37.259-37.379 80.464-37.379 125.125 0 125.853 102.309 228.162 228.162 228.162 49.394 0 96.483-15.534 135.926-44.905 20.995-15.655 38.836-34.346 53.157-55.463 14.321 21.117 32.161 39.807 53.157 55.463 39.564 29.37 86.531 44.905 135.926 44.905 125.853 0 228.162-102.309 228.162-228.162 0-44.661-12.986-87.988-37.379-125.125-45.39-74.516-99.396-143.937-160.563-206.438s-129.494-117.965-203.040-164.932c-0.242-0.122-0.364-0.242-0.607-0.364-2.306-1.334-4.611-2.427-7.161-3.155-2.791-0.971-5.583-1.334-8.496-1.334zM322.431 750.194c-92.964 0-168.694-75.73-168.694-168.694 0-33.132 9.588-65.294 27.792-92.843 0.242-0.364 0.364-0.607 0.607-0.971 82.891-136.17 196.608-254.256 329.379-342.365 132.893 88.231 246.489 206.196 329.379 342.365 0.242 0.364 0.364 0.607 0.607 0.971 18.205 27.549 27.792 59.711 27.792 92.843 0 92.964-75.73 168.694-168.694 168.694-73.91 0-138.476-47.21-160.805-117.601-3.884-12.379-15.413-20.753-28.277-20.753-12.986 0-24.394 8.374-28.277 20.753-22.331 70.39-87.018 117.601-160.805 117.601z" />
<glyph unicode="&#xe90b;" glyph-name="10" d="M746.1 277l-125 200h98.8v313.2h50v-313.2h101.2l-125-200zM552.7 790.2h-440v-50h440v50zM552.7 578.7h-440v-50h440v50zM552.7 367.3h-440v-50h440v50zM112.7 155.8v-50h798.6v50h-798.6z" />
<glyph unicode="&#xe90c;" glyph-name="11" d="M842 898h-660c-66 0-120-54-120-120v-660c0-66 54-120 120-120h660c66 0 120 54 120 120v660c0 66-54 120-120 120zM872 148c0-33-27-60-60-60h-600c-33 0-60 27-60 60v600c0 33 27 60 60 60h600c33 0 60-27 60-60v-600zM737 493h-180v180c0 24.8-20.2 45-45 45s-45-20.2-45-45v-180h-180c-24.8 0-45-20.2-45-45s20.2-45 45-45h180v-180c0-24.8 20.2-45 45-45s45 20.2 45 45v180h180c24.8 0 45 20.2 45 45s-20.2 45-45 45z" />
<glyph unicode="&#xe90d;" glyph-name="12" d="M817 800h38c30.928 0 56-25.072 56-56v-593c0-30.928-25.072-56-56-56h-38c-30.928 0-56 25.072-56 56v593c0 30.928 25.072 56 56 56zM648.314 413.809l-422.304-303.4c-32.294-23.201-77.282-15.83-100.484 16.464-8.455 11.652-13.526 26.239-13.526 42.009 0 0 0 0 0 0.001v0 559.053c0 39.764 32.235 72 72 72 0 0 0 0 0 0 14.89 0 28.724-4.52 40.206-12.263l-0.256 0.163 422.762-281.959c25.73-17.16 32.677-51.93 15.517-77.66-3.808-5.659-8.427-10.435-13.753-14.296l-0.162-0.112z" />
<glyph unicode="&#xe90e;" glyph-name="13" d="M947.2 371.2c-19.2 0-32-12.8-32-32v-108.8c0-51.2-25.6-96-96-96h-614.4c-76.8-6.4-96 44.8-96 96v108.8c0 19.2-12.8 32-32 32s-25.6-12.8-25.6-32v-147.2c0-70.4 57.6-128 128-128h672c70.4 0 128 57.6 128 128v147.2c-6.4 19.2-19.2 32-32 32zM544 249.6l172.8 166.4c12.8 12.8 12.8 32 0 44.8s-32 12.8-44.8 0l-121.6-108.8v448c0 19.2-12.8 32-32 32s-32-12.8-32-32v-448l-121.6 108.8c-12.8 12.8-38.4 12.8-44.8 0-12.8-12.8-12.8-32 0-44.8l172.8-166.4s25.6-25.6 51.2 0z" />
<glyph unicode="&#xe90f;" glyph-name="14" d="M694.4 105.6h-499.2l48-44.8c9.6-6.4 16-16 16-28.8-3.2-19.2-19.2-32-38.4-32-9.6 0-22.4 6.4-28.8 12.8l-108.8 96c-12.8 12.8-16 35.2 0 48l108.8 99.2c6.4 6.4 19.2 9.6 28.8 9.6 19.2 0 35.2-16 35.2-35.2 0-9.6-6.4-19.2-12.8-25.6l-41.6-38.4h496c112 0 198.4 89.6 198.4 198.4v86.4c0 19.2 12.8 32 32 32s32-12.8 32-32v-86.4c0-140.8-118.4-259.2-265.6-259.2zM329.6 790.4h496l-48 44.8c-9.6 6.4-16 16-16 28.8 3.2 19.2 19.2 32 38.4 32 9.6 0 22.4-6.4 28.8-12.8l108.8-96c12.8-12.8 16-35.2 0-48l-105.6-99.2c-6.4-6.4-19.2-9.6-28.8-9.6-19.2 0-35.2 16-35.2 35.2 0 9.6 6.4 19.2 12.8 25.6l41.6 38.4h-496c-108.8-3.2-198.4-92.8-198.4-204.8v-89.6c0-19.2-12.8-32-32-32s-32 12.8-32 32v86.4c0 150.4 118.4 268.8 265.6 268.8z" />
<glyph unicode="&#xe910;" glyph-name="15" d="M218.496 625.39c-0.391 0.019-0.774 0.019-1.165 0.019h-117.309c-21.744 0-39.087-17.448-39.087-39.001v-273.866c0-21.552 17.506-38.999 39.087-38.999h117.309c0.057 0 0.114 0 0.172 0v-0.153l287.221-185.976c6.824-5.842 15.691-9.354 25.371-9.354 21.591 0 39.096 17.506 39.096 39.095 0 1.795-0.125 3.552-0.354 5.27v654.101c0.229 1.718 0.354 3.475 0.354 5.269 0 21.591-17.506 39.096-39.096 39.096-8.896 0-17.106-2.978-23.682-7.98l-287.916-187.522zM757.858 6.509l0.086-0.076c123.876 107.515 202.211 266.133 202.211 443.041 0 177.214-78.603 336.063-202.851 443.617l-0.115-0.115c-4.963 3.818-11.177 6.109-17.925 6.109-16.198 0-29.323-13.133-29.323-29.322 0-6.758 2.281-12.982 6.109-17.926l-0.334-0.343c0.822-0.706 1.641-1.394 2.462-2.119 1.174-1.202 2.453-2.329 3.818-3.322 110.055-96.711 179.513-238.55 179.513-396.578s-69.459-299.867-179.513-396.577c-1.365-0.994-2.644-2.118-3.818-3.322-0.601-0.533-1.213-1.049-1.823-1.565l0.229-0.23c-4.153-5.058-6.643-11.531-6.643-18.593 0-16.189 13.125-29.322 29.323-29.322 7.052-0.001 13.533 2.482 18.592 6.642zM713.998 230.646l0.238-0.248c55.38 56.43 89.532 133.765 89.532 219.078 0 85.409-34.229 162.801-89.704 219.249l-0.268-0.267c-4.886 3.646-10.967 5.822-17.544 5.822-16.198 0-29.323-13.133-29.323-29.322 0-6.567 2.166-12.657 5.823-17.545l-0.163-0.171c0.774-0.783 1.547-1.584 2.311-2.386 0.076-0.077 0.152-0.172 0.238-0.249 43.363-45.587 69.984-107.249 69.984-175.133s-26.621-129.544-69.984-175.132c-0.086-0.078-0.163-0.172-0.238-0.248-0.706-0.746-1.422-1.472-2.139-2.214l0.144-0.134c-3.751-4.926-5.976-11.093-5.976-17.754 0-16.189 13.125-29.322 29.323-29.322 6.673 0.001 12.82 2.215 17.745 5.975z" />
<glyph unicode="&#xe911;" glyph-name="16" d="M191.398 831.805h191.081v-768.472h-191.081v768.472zM575.874 831.805h192.901v-768.472h-192.901v768.472z" />
<glyph unicode="&#xe912;" glyph-name="uniE912" d="M452.677 881.307c-15.655 6.362-34.744 2.403-46.544-9.712l-200.921-205.458h-98.367c-22.949 0-41.554-18.209-41.554-41.16v-353.999c0-22.952 18.606-41.16 41.554-41.16h98.367l199.797-205.458c7.979-8.199 18.784-12.671 29.786-12.671 5.26 0 12.813 0.949 17.881 3.009 15.664 6.367 28.157 21.543 28.157 38.453v789.656c0 16.91-12.494 32.136-28.157 38.503zM397.725 155.415l-142.95 144.744c-7.822 8.037-20.808 12.766-32.024 12.766h-74.353v270.103h74.353c11.215 0 24.201 4.729 32.024 12.766l142.95 144.744v-585.121zM946.931 323.576c16.009-16.448 15.654-42.763-0.786-58.775-8.080-7.864-18.54-11.78-28.984-11.78-10.825 0-21.636 4.201-29.781 12.567l-119.541 122.8-119.54-122.8c-8.147-8.366-18.961-12.567-29.781-12.567-10.449 0-20.904 3.916-28.984 11.78-16.439 16.012-16.796 42.327-0.786 58.775l121.092 124.397-121.093 124.396c-16.009 16.448-15.654 42.763 0.786 58.775 16.46 16.012 42.762 15.646 58.765-0.786l119.54-122.801 119.541 122.801c16.014 16.454 42.315 16.793 58.765 0.786 16.44-16.012 16.796-42.327 0.786-58.775l-121.092-124.396 121.093-124.397z" />
<glyph unicode="&#xe913;" glyph-name="20" d="M366 665.496c-132 0-240-107.104-240-238s108-238 240-238h304c132 0 240 107.104 240 238s-108 238-240 238h-304zM674 223.336c-111.28 0-201.504 91.408-201.504 204.168s90.224 204.16 201.504 204.16 201.504-91.408 201.504-204.168-90.224-204.16-201.504-204.16z" />
<glyph unicode="&#xe914;" d="M704.030 254.97h-382.060c-123.181 0-223.965 100.784-223.965 223.965s100.784 223.965 223.965 223.965h382.060c123.181 0 223.965-100.784 223.965-223.965s-100.784-223.965-223.965-223.965z" />
<glyph unicode="&#xe915;" d="M109 478.935c0-118.858 96.354-215.212 215.212-215.212s215.212 96.354 215.212 215.212v0c0 118.858-96.354 215.212-215.212 215.212s-215.212-96.354-215.212-215.212v0z" />
<glyph unicode="&#xe916;" glyph-name="18" d="M155.644 520.774l220.824-220.861 486.861 490.229 95.379-95.353-585.575-588.933-307.845 307.845 90.355 107.073z" />
<glyph unicode="&#xe917;" glyph-name="17" d="M949.284 60.433l-188.299 188.299c56.878 68.365 91.093 156.255 91.093 252.14 0 217.868-176.617 394.485-394.485 394.485s-394.485-176.617-394.485-394.485 176.617-394.485 394.485-394.485c96.93 0 185.693 34.96 254.371 92.957l188.114-188.115c6.795-6.795 15.698-10.19 24.602-10.19s17.809 3.397 24.602 10.19c13.586 13.587 13.586 35.616 0 49.205zM457.594 175.971c-43.892 0-86.434 8.58-126.445 25.504-38.68 16.361-73.433 39.796-103.295 69.657s-53.297 64.614-69.657 103.295c-16.923 40.010-25.504 82.552-25.504 126.445s8.58 86.434 25.504 126.445c16.361 38.68 39.796 73.433 69.657 103.295s64.614 53.297 103.295 69.657c40.010 16.923 82.552 25.504 126.445 25.504s86.434-8.58 126.445-25.504c38.68-16.361 73.433-39.796 103.295-69.657 29.86-29.861 53.297-64.614 69.657-103.295 16.923-40.010 25.504-82.552 25.504-126.445s-8.58-86.434-25.504-126.445c-16.361-38.68-39.796-73.433-69.657-103.295s-64.615-53.297-103.295-69.657c-40.011-16.923-82.553-25.504-126.445-25.504z" />
<glyph unicode="&#xe918;" glyph-name="uniE918" d="M959.846 960h-255.959c-35.341 0-63.99-28.649-63.99-63.99v0-533.674c-28.093 13.639-61.108 21.611-95.985 21.611-123.692 0-223.964-100.272-223.964-223.964s100.272-223.964 223.964-223.964c123.692 0 223.964 100.272 223.964 223.964 0 0.051 0 0.103 0 0.154v-0.008 422.332c143.323 37.205 248.681 162.124 255.929 312.773l0.030 0.777c0 35.341-28.649 63.99-63.99 63.99v0zM542.633 64.144c-52.458 0.722-94.705 43.415-94.705 95.976 0 53.011 42.974 95.985 95.985 95.985 53.008 0 95.98-42.969 95.985-95.976v0c0-0.003 0-0.006 0-0.009 0-53.011-42.974-95.985-95.985-95.985-0.45 0-0.899 0.003-1.348 0.009l0.068-0.001zM767.877 714.919v117.101h118.381c-20.031-55.108-62.992-97.651-117.037-116.689l-1.344-0.413zM63.99 768.031h383.938c35.337 0.005 63.982 28.652 63.982 63.99s-28.645 63.985-63.981 63.99h-383.939c-35.337-0.005-63.982-28.652-63.982-63.99s28.645-63.985 63.981-63.99v0zM63.99 576.062h383.938c35.337 0.005 63.982 28.652 63.982 63.99s-28.645 63.985-63.981 63.99h-383.939c-35.337-0.005-63.982-28.652-63.982-63.99s28.645-63.985 63.981-63.99v0zM255.959 512.072h-191.969c-35.337-0.005-63.982-28.652-63.982-63.99s28.645-63.985 63.981-63.99h191.97c35.337 0.005 63.982 28.652 63.982 63.99s-28.645 63.985-63.981 63.99v0z" />
<glyph unicode="&#xe919;" glyph-name="uniE919" d="M753.565 622.529c-45.87 0-160.26-113.85-243.789-194.549-126.641-122.364-246.267-241.265-342.010-241.265h-58.892c-24.068 0-43.582 19.527-43.582 43.582s19.513 43.582 43.582 43.582h58.892c60.504 0 183.003 121.681 281.433 216.784 119.796 115.744 223.255 219.029 304.368 219.029h56.209l-59.641 57.828c-17.034 16.993-17.061 42.902-0.057 59.928 17.002 17.031 44.597 17.065 61.632 0.065l134.208-133.874c8.193-8.172 12.794-19.238 12.794-30.804 0-11.564-4.602-22.605-12.794-30.777l-134.209-133.785c-8.506-8.486-19.646-12.522-30.787-12.522-11.166 0-22.334 4.677-30.844 13.2-17.003 17.026-16.976 45.433 0.057 62.426l59.641 61.152h-56.209zM811.707 398.339c-17.035 16.999-44.629 16.973-61.632-0.058-17.003-17.025-16.976-46.258 0.057-63.251l59.641-61.151h-56.209c-35.793 0-95.59 52.947-154.876 108.373-17.576 16.435-45.162 16.342-61.595-1.227-16.445-17.568-15.524-46.394 2.054-62.824 90.322-84.459 151.247-131.485 214.417-131.485h56.209l-59.641-57.825c-17.034-16.993-17.061-43.736-0.057-60.762 8.512-8.523 19.678-12.37 30.844-12.37 11.141 0 22.281 4.453 30.787 12.94l134.208 133.989c8.193 8.173 12.794 19.316 12.794 30.881s-4.602 22.683-12.794 30.856l-134.208 133.913zM108.872 622.529h58.892c45.932 0 114.402-58.455 168.915-107.942 8.352-7.577 18.833-12.141 29.292-12.141 11.853 0 23.673 4.394 32.271 13.858 16.183 17.808 14.859 46.823-2.958 62.999-85.248 77.381-156.562 130.389-227.52 130.389h-58.892c-24.068 0-43.582-19.527-43.582-43.582s19.514-43.581 43.582-43.581z" />
<glyph unicode="&#xe91a;" glyph-name="uniE91A" d="M512 857.6c-226.216 0-409.6-183.384-409.6-409.6s183.384-409.6 409.6-409.6c226.216 0 409.6 183.384 409.6 409.6v0c0 226.216-183.384 409.6-409.6 409.6v0zM693.248 339.456c9.303-9.303 15.057-22.156 15.057-36.352 0-28.393-23.017-51.409-51.409-51.409-14.196 0-27.049 5.754-36.352 15.057v0l-108.544 109.056-108.544-109.056c-9.303-9.303-22.156-15.057-36.352-15.057-28.393 0-51.409 23.017-51.409 51.409 0 14.196 5.754 27.049 15.057 36.352v0l109.056 108.544-109.056 108.544c-9.303 9.303-15.057 22.156-15.057 36.352 0 28.393 23.017 51.409 51.409 51.409 14.196 0 27.049-5.754 36.352-15.057v0l108.544-109.056 108.544 109.056c9.303 9.303 22.156 15.057 36.352 15.057 28.393 0 51.409-23.017 51.409-51.409 0-14.196-5.754-27.049-15.057-36.352v0l-109.056-108.544z" />
</font>
</defs>
</svg>
